Coordinates
version=1
nRows=19
nColumns=24
inDegrees=yes

Units are S.I. units (second, meters, Newtons, ...)
Angles are in degrees.

endheader
time	pelvis_tilt	pelvis_list	pelvis_rotation	pelvis_tx	pelvis_ty	pelvis_tz	hip_flexion_r	hip_adduction_r	hip_rotation_r	knee_angle_r	ankle_angle_r	subtalar_angle_r	mtp_angle_r	hip_flexion_l	hip_adduction_l	hip_rotation_l	knee_angle_l	ankle_angle_l	subtalar_angle_l	mtp_angle_l	lumbar_extension	lumbar_bending	lumbar_rotation
      6.58000000	     -2.59687368	      3.56723742	     -2.47220217	     -0.74783291	      0.67165174	     -0.21321908	      8.65801454	     -1.23473862	      2.95923091	    -57.18403534	     -7.30442222	      2.01525079	      0.00000000	     16.45689426	      6.74040658	     -4.94232258	    -12.42986250	      5.92467399	     -8.48270525	      0.00000000	    -16.20090615	     -8.22540321	      0.61361969
      6.59000000	     -2.51867287	      3.88881699	     -2.05532427	     -0.73997818	      0.67235670	     -0.21445011	     10.90931647	     -1.59418851	      2.99180706	    -60.36564571	     -7.68498599	     -0.83339635	      0.00000000	     15.42573581	      7.28320706	     -4.84577062	    -12.03754240	      6.63518118	     -7.88708795	      0.00000000	    -16.51897837	     -8.35202196	     -0.03377312
      6.60000000	     -2.42345202	      4.06947227	     -1.58823952	     -0.73217124	      0.67317616	     -0.21569770	     13.01619040	     -1.80086513	      2.98093223	    -62.99508795	     -7.61034471	     -4.20037859	      0.00000000	     14.40748961	      7.71421785	     -4.41781910	    -11.73538250	      7.30461978	     -7.58046257	      0.00000000	    -16.83773111	     -8.31585892	     -0.63626998
      6.61000000	     -2.32543339	      4.10069679	     -1.07600705	     -0.72440399	      0.67410457	     -0.21694849	     14.99024213	     -1.86017228	      2.91823819	    -65.05383548	     -7.19625395	     -7.86696546	      0.00000000	     13.40246306	      8.00884560	     -3.71713365	    -11.48882072	      7.88403736	     -7.53881112	      0.00000000	    -17.12911464	     -8.12328466	     -1.15637093
      6.62000000	     -2.23050444	      4.00620888	     -0.53392213	     -0.71663093	      0.67511426	     -0.21820402	     16.83937983	     -1.81804779	      2.80416955	    -66.54956950	     -6.51581910	    -11.50222817	      0.00000000	     12.37640327	      8.17446585	     -2.85337337	    -11.21279193	      8.38500904	     -7.66573634	      0.00000000	    -17.35603839	     -7.80502916	     -1.61564555
      6.63000000	     -2.12555962	      3.79303788	      0.01323982	     -0.70892496	      0.67617025	     -0.21942154	     18.56100181	     -1.66927745	      2.67948754	    -67.50279368	     -5.66078400	    -14.92213023	      0.00000000	     11.35419124	      8.19329123	     -1.94669492	    -10.96482808	      8.79633095	     -7.87144415	      0.00000000	    -17.57109840	     -7.39096678	     -1.90016645
      6.64000000	     -2.02140198	      3.50952832	      0.53774330	     -0.70120918	      0.67723482	     -0.22059077	     20.15872060	     -1.46956436	      2.56534760	    -67.92585364	     -4.72899515	    -17.94185302	      0.00000000	     10.28534598	      8.10040319	     -1.13445442	    -10.61620163	      9.20347828	     -8.01851138	      0.00000000	    -17.73324930	     -6.92656072	     -2.11518664
      6.65000000	     -1.92424088	      3.17560964	      1.04075398	     -0.69351102	      0.67827514	     -0.22167813	     21.63703379	     -1.23265378	      2.46180777	    -67.84137320	     -3.76896674	    -20.49839188	      0.00000000	      9.19437201	      7.90399466	     -0.47963441	    -10.19276428	      9.60817341	     -7.97996021	      0.00000000	    -17.86122065	     -6.44558666	     -2.26498243
      6.66000000	     -1.85676076	      2.82182536	      1.53986430	     -0.68582782	      0.67922563	     -0.22271720	     23.01821692	     -1.00893436	      2.33908235	    -67.28768552	     -2.64597683	    -22.39986995	      0.00000000	      8.11207961	      7.64635320	      0.06027653	     -9.71155157	     10.12436126	     -7.75736418	      0.00000000	    -17.94038846	     -5.96096217	     -2.42452033
      6.67000000	     -1.77059285	      2.44244858	      2.01898318	     -0.67816037	      0.68014594	     -0.22366445	     24.22054144	     -0.76876335	      2.21374016	    -66.21776107	     -1.77111107	    -24.20217255	      0.00000000	      6.99672489	      7.31524295	      0.42330730	     -9.17103258	     10.52959588	     -7.39689037	      0.00000000	    -18.04266411	     -5.46537669	     -2.52589129
      6.68000000	     -1.70376634	      2.10589741	      2.49696670	     -0.67050478	      0.68094131	     -0.22453040	     25.29395334	     -0.60163758	      2.06185500	    -64.69760206	     -0.84009841	    -25.67442411	      0.00000000	      5.91391196	      6.99782136	      0.69363237	     -8.63481782	     10.93854135	     -6.96496564	      0.00000000	    -18.12989601	     -5.04396946	     -2.62224103
      6.69000000	     -1.56386047	      1.81110526	      2.96715131	     -0.66285289	      0.68168293	     -0.22530159	     26.11799526	     -0.49181916	      1.88536425	    -62.70547281	     -0.09444738	    -27.18465541	      0.00000000	      4.79960397	      6.68332977	      0.76339797	     -8.16551136	     11.40550075	     -6.26312862	      0.00000000	    -18.32334787	     -4.68759546	     -2.70461007
      6.70000000	     -1.59208196	      1.55294985	      3.52556793	     -0.65522840	      0.68209395	     -0.22612761	     26.97207157	     -0.52017088	      1.54665458	    -60.32519541	      1.00542251	    -28.16707331	      0.00000000	      3.91080725	      6.42617405	      1.09122620	     -7.78533358	     11.89554302	     -5.87790477	      0.00000000	    -18.32580173	     -4.35277829	     -2.90876969
      6.71000000	     -1.45538552	      1.35796508	      4.07113044	     -0.64755277	      0.68250079	     -0.22687453	     27.45033014	     -0.61636908	      1.17281585	    -57.48195067	      1.97088984	    -29.16350745	      0.00000000	      2.89877646	      6.19617723	      1.26118132	     -7.49960977	     12.43620770	     -5.26181325	      0.00000000	    -18.54024455	     -4.09423974	     -3.11968417
      6.72000000	     -1.52382311	      1.25394901	      4.69456416	     -0.63987764	      0.68250343	     -0.22768698	     27.98013388	     -0.89755236	      0.65497388	    -54.26140982	      2.94842769	    -29.94338805	      0.00000000	      2.16587599	      6.08651386	      1.66934959	     -7.34838366	     12.99751813	     -4.95131104	      0.00000000	    -18.51853533	     -3.92232247	     -3.44252148
      6.73000000	     -1.52557912	      1.21942904	      5.33128794	     -0.63212081	      0.68238187	     -0.22849610	     28.22595587	     -1.27578805	      0.04157320	    -50.60341986	      3.75804296	    -30.57414862	      0.00000000	      1.39646561	      6.03331059	      2.09543167	     -7.28419929	     13.57384223	     -4.63428332	      0.00000000	    -18.58043055	     -3.81717542	     -3.78106144
      6.74000000	     -1.54003215	      1.27478308	      5.97144333	     -0.62427023	      0.68204860	     -0.22930945	     28.27106417	     -1.76458897	     -0.65923723	    -46.53360343	      4.32053203	    -30.96982398	      0.00000000	      0.66753702	      6.06703543	      2.54686205	     -7.30650557	     14.17222734	     -4.36037013	      0.00000000	    -18.62510417	     -3.80219980	     -4.11317592
      6.75000000	     -1.50003397	      1.40978541	      6.59172473	     -0.61629073	      0.68157184	     -0.23010953	     28.02384089	     -2.31397799	     -1.41945277	    -42.04917326	      4.55216195	    -31.06897328	      0.00000000	     -0.11164888	      6.16547950	      2.98159746	     -7.38714630	     14.78756636	     -4.07828657	      0.00000000	    -18.72877827	     -3.86839756	     -4.40249191
      6.76000000	     -1.60273262	      1.65903420	      7.23991188	     -0.60821395	      0.68075594	     -0.23093459	     27.71145956	     -2.98489196	     -2.24348214	    -37.24005599	      4.48567846	    -30.70805681	      0.00000000	     -0.73160135	      6.39348332	      3.52127080	     -7.54369789	     15.42823695	     -3.88946301	      0.00000000	    -18.66307076	     -4.06147530	     -4.78997805
